<mxfile host="Electron" agent="Mozilla/5.0 (Windows NT 10.0; Win64; x64) AppleWebKit/537.36 (KHTML, like Gecko) draw.io/25.0.2 Chrome/128.0.6613.186 Electron/32.2.5 Safari/537.36" version="25.0.2">
  <diagram name="Page-1" id="PV_m16Hd_yfd8GzRDaMK">
    <mxGraphModel dx="1235" dy="740" grid="1" gridSize="10" guides="1" tooltips="1" connect="1" arrows="1" fold="1" page="1" pageScale="1" pageWidth="827" pageHeight="1169" math="0" shadow="0">
      <root>
        <mxCell id="0" />
        <mxCell id="1" parent="0" />
        <mxCell id="Zgi0F4orfHbIRYUvKWjQ-16" style="edgeStyle=orthogonalEdgeStyle;rounded=0;orthogonalLoop=1;jettySize=auto;html=1;entryX=0.5;entryY=1;entryDx=0;entryDy=0;" parent="1" source="Zgi0F4orfHbIRYUvKWjQ-1" target="Zgi0F4orfHbIRYUvKWjQ-2" edge="1">
          <mxGeometry relative="1" as="geometry" />
        </mxCell>
        <mxCell id="Zgi0F4orfHbIRYUvKWjQ-17" value="read=1" style="edgeLabel;html=1;align=center;verticalAlign=middle;resizable=0;points=[];" parent="Zgi0F4orfHbIRYUvKWjQ-16" vertex="1" connectable="0">
          <mxGeometry x="0.0303" y="2" relative="1" as="geometry">
            <mxPoint x="27" as="offset" />
          </mxGeometry>
        </mxCell>
        <mxCell id="Zgi0F4orfHbIRYUvKWjQ-35" style="edgeStyle=orthogonalEdgeStyle;rounded=0;orthogonalLoop=1;jettySize=auto;html=1;" parent="1" source="Zgi0F4orfHbIRYUvKWjQ-1" target="Zgi0F4orfHbIRYUvKWjQ-13" edge="1">
          <mxGeometry relative="1" as="geometry" />
        </mxCell>
        <mxCell id="Zgi0F4orfHbIRYUvKWjQ-36" value="run=1" style="edgeLabel;html=1;align=center;verticalAlign=middle;resizable=0;points=[];" parent="Zgi0F4orfHbIRYUvKWjQ-35" vertex="1" connectable="0">
          <mxGeometry x="-0.3954" y="-4" relative="1" as="geometry">
            <mxPoint x="19" y="5" as="offset" />
          </mxGeometry>
        </mxCell>
        <mxCell id="Zgi0F4orfHbIRYUvKWjQ-107" style="edgeStyle=orthogonalEdgeStyle;rounded=0;orthogonalLoop=1;jettySize=auto;html=1;entryX=1;entryY=0.5;entryDx=0;entryDy=0;" parent="1" target="Zgi0F4orfHbIRYUvKWjQ-1" edge="1">
          <mxGeometry relative="1" as="geometry">
            <mxPoint x="540" y="240" as="sourcePoint" />
          </mxGeometry>
        </mxCell>
        <mxCell id="Zgi0F4orfHbIRYUvKWjQ-108" value="Power On" style="edgeLabel;html=1;align=center;verticalAlign=middle;resizable=0;points=[];" parent="Zgi0F4orfHbIRYUvKWjQ-107" vertex="1" connectable="0">
          <mxGeometry x="-0.6221" y="-1" relative="1" as="geometry">
            <mxPoint x="-21" y="-9" as="offset" />
          </mxGeometry>
        </mxCell>
        <mxCell id="Zgi0F4orfHbIRYUvKWjQ-1" value="Idle" style="ellipse;whiteSpace=wrap;html=1;aspect=fixed;" parent="1" vertex="1">
          <mxGeometry x="385" y="200" width="80" height="80" as="geometry" />
        </mxCell>
        <mxCell id="Zgi0F4orfHbIRYUvKWjQ-2" value="Read current instruction/Q" style="ellipse;whiteSpace=wrap;html=1;aspect=fixed;" parent="1" vertex="1">
          <mxGeometry x="385" y="20" width="80" height="80" as="geometry" />
        </mxCell>
        <mxCell id="Zgi0F4orfHbIRYUvKWjQ-9" value="" style="curved=1;endArrow=classic;html=1;rounded=0;exitX=1;exitY=0.5;exitDx=0;exitDy=0;" parent="1" source="Zgi0F4orfHbIRYUvKWjQ-2" target="Zgi0F4orfHbIRYUvKWjQ-1" edge="1">
          <mxGeometry width="50" height="50" relative="1" as="geometry">
            <mxPoint x="540" y="30" as="sourcePoint" />
            <mxPoint x="465.84000000000003" y="226.96000000000004" as="targetPoint" />
            <Array as="points">
              <mxPoint x="510" y="60" />
              <mxPoint x="510" y="120" />
            </Array>
          </mxGeometry>
        </mxCell>
        <mxCell id="Zgi0F4orfHbIRYUvKWjQ-11" value="Write instruction" style="ellipse;whiteSpace=wrap;html=1;aspect=fixed;" parent="1" vertex="1">
          <mxGeometry x="60" y="210" width="80" height="80" as="geometry" />
        </mxCell>
        <mxCell id="Zgi0F4orfHbIRYUvKWjQ-12" value="write=1" style="curved=1;endArrow=classic;html=1;rounded=0;entryX=1;entryY=0.5;entryDx=0;entryDy=0;exitX=0;exitY=0.5;exitDx=0;exitDy=0;" parent="1" source="Zgi0F4orfHbIRYUvKWjQ-1" target="Zgi0F4orfHbIRYUvKWjQ-11" edge="1">
          <mxGeometry x="0.1429" y="10" width="50" height="50" relative="1" as="geometry">
            <mxPoint x="380" y="240" as="sourcePoint" />
            <mxPoint x="340" y="290" as="targetPoint" />
            <Array as="points">
              <mxPoint x="340" y="240" />
            </Array>
            <mxPoint as="offset" />
          </mxGeometry>
        </mxCell>
        <mxCell id="Zgi0F4orfHbIRYUvKWjQ-62" style="edgeStyle=orthogonalEdgeStyle;rounded=0;orthogonalLoop=1;jettySize=auto;html=1;" parent="1" source="Zgi0F4orfHbIRYUvKWjQ-13" target="Zgi0F4orfHbIRYUvKWjQ-61" edge="1">
          <mxGeometry relative="1" as="geometry" />
        </mxCell>
        <mxCell id="Zgi0F4orfHbIRYUvKWjQ-13" value="Fetch instruction" style="ellipse;whiteSpace=wrap;html=1;aspect=fixed;" parent="1" vertex="1">
          <mxGeometry x="385" y="330" width="80" height="80" as="geometry" />
        </mxCell>
        <mxCell id="Zgi0F4orfHbIRYUvKWjQ-21" value="Store instruction" style="ellipse;whiteSpace=wrap;html=1;aspect=fixed;" parent="1" vertex="1">
          <mxGeometry x="180" y="60" width="80" height="80" as="geometry" />
        </mxCell>
        <mxCell id="Zgi0F4orfHbIRYUvKWjQ-22" value="Previous instruction" style="ellipse;whiteSpace=wrap;html=1;aspect=fixed;" parent="1" vertex="1">
          <mxGeometry x="90" y="450" width="80" height="80" as="geometry" />
        </mxCell>
        <mxCell id="Zgi0F4orfHbIRYUvKWjQ-25" value="" style="curved=1;endArrow=classic;html=1;rounded=0;entryX=0;entryY=0;entryDx=0;entryDy=0;exitX=0.5;exitY=1;exitDx=0;exitDy=0;" parent="1" source="Zgi0F4orfHbIRYUvKWjQ-21" target="Zgi0F4orfHbIRYUvKWjQ-1" edge="1">
          <mxGeometry width="50" height="50" relative="1" as="geometry">
            <mxPoint x="180" y="100" as="sourcePoint" />
            <mxPoint x="230" y="50" as="targetPoint" />
            <Array as="points">
              <mxPoint x="260" y="160" />
            </Array>
          </mxGeometry>
        </mxCell>
        <mxCell id="Zgi0F4orfHbIRYUvKWjQ-37" value="Decode instruction" style="ellipse;whiteSpace=wrap;html=1;aspect=fixed;" parent="1" vertex="1">
          <mxGeometry x="385" y="570" width="80" height="80" as="geometry" />
        </mxCell>
        <mxCell id="Zgi0F4orfHbIRYUvKWjQ-39" value="" style="curved=1;endArrow=classic;html=1;rounded=0;entryX=0.5;entryY=0;entryDx=0;entryDy=0;exitX=0;exitY=0.5;exitDx=0;exitDy=0;" parent="1" source="Zgi0F4orfHbIRYUvKWjQ-22" target="Zgi0F4orfHbIRYUvKWjQ-22" edge="1">
          <mxGeometry width="50" height="50" relative="1" as="geometry">
            <mxPoint x="185" y="485" as="sourcePoint" />
            <mxPoint x="235" y="435" as="targetPoint" />
            <Array as="points">
              <mxPoint x="80" y="450" />
              <mxPoint x="110" y="430" />
              <mxPoint x="130" y="430" />
            </Array>
          </mxGeometry>
        </mxCell>
        <mxCell id="Zgi0F4orfHbIRYUvKWjQ-40" value="previous=1" style="edgeLabel;html=1;align=center;verticalAlign=middle;resizable=0;points=[];" parent="Zgi0F4orfHbIRYUvKWjQ-39" vertex="1" connectable="0">
          <mxGeometry x="0.0374" y="-1" relative="1" as="geometry">
            <mxPoint x="2" y="1" as="offset" />
          </mxGeometry>
        </mxCell>
        <mxCell id="Zgi0F4orfHbIRYUvKWjQ-47" value="XOR" style="ellipse;whiteSpace=wrap;html=1;aspect=fixed;" parent="1" vertex="1">
          <mxGeometry x="140" y="810" width="80" height="80" as="geometry" />
        </mxCell>
        <mxCell id="Zgi0F4orfHbIRYUvKWjQ-48" value="NAND" style="ellipse;whiteSpace=wrap;html=1;aspect=fixed;" parent="1" vertex="1">
          <mxGeometry x="250" y="810" width="80" height="80" as="geometry" />
        </mxCell>
        <mxCell id="Zgi0F4orfHbIRYUvKWjQ-49" value="NOT" style="ellipse;whiteSpace=wrap;html=1;aspect=fixed;" parent="1" vertex="1">
          <mxGeometry x="345" y="810" width="80" height="80" as="geometry" />
        </mxCell>
        <mxCell id="Zgi0F4orfHbIRYUvKWjQ-50" value="ADD" style="ellipse;whiteSpace=wrap;html=1;aspect=fixed;" parent="1" vertex="1">
          <mxGeometry x="465" y="810" width="80" height="80" as="geometry" />
        </mxCell>
        <mxCell id="Zgi0F4orfHbIRYUvKWjQ-51" value="Left Shift" style="ellipse;whiteSpace=wrap;html=1;aspect=fixed;" parent="1" vertex="1">
          <mxGeometry x="580" y="810" width="80" height="80" as="geometry" />
        </mxCell>
        <mxCell id="Zgi0F4orfHbIRYUvKWjQ-52" value="Right Shift" style="ellipse;whiteSpace=wrap;html=1;aspect=fixed;" parent="1" vertex="1">
          <mxGeometry x="680" y="810" width="80" height="80" as="geometry" />
        </mxCell>
        <mxCell id="Zgi0F4orfHbIRYUvKWjQ-53" value="Store result/Q" style="ellipse;whiteSpace=wrap;html=1;aspect=fixed;" parent="1" vertex="1">
          <mxGeometry x="385" y="950" width="80" height="80" as="geometry" />
        </mxCell>
        <mxCell id="Zgi0F4orfHbIRYUvKWjQ-54" value="" style="curved=1;endArrow=classic;html=1;rounded=0;exitX=0.5;exitY=1;exitDx=0;exitDy=0;entryX=0.5;entryY=0;entryDx=0;entryDy=0;" parent="1" source="Zgi0F4orfHbIRYUvKWjQ-37" target="Zgi0F4orfHbIRYUvKWjQ-47" edge="1">
          <mxGeometry width="50" height="50" relative="1" as="geometry">
            <mxPoint x="510" y="530" as="sourcePoint" />
            <mxPoint x="560" y="480" as="targetPoint" />
            <Array as="points">
              <mxPoint x="340" y="700" />
              <mxPoint x="300" y="720" />
            </Array>
          </mxGeometry>
        </mxCell>
        <mxCell id="Zgi0F4orfHbIRYUvKWjQ-56" value="" style="curved=1;endArrow=classic;html=1;rounded=0;exitX=0.5;exitY=1;exitDx=0;exitDy=0;entryX=0.5;entryY=0;entryDx=0;entryDy=0;" parent="1" source="Zgi0F4orfHbIRYUvKWjQ-37" target="Zgi0F4orfHbIRYUvKWjQ-48" edge="1">
          <mxGeometry width="50" height="50" relative="1" as="geometry">
            <mxPoint x="490" y="550" as="sourcePoint" />
            <mxPoint x="540" y="500" as="targetPoint" />
            <Array as="points">
              <mxPoint x="370" y="680" />
            </Array>
          </mxGeometry>
        </mxCell>
        <mxCell id="Zgi0F4orfHbIRYUvKWjQ-57" value="" style="curved=1;endArrow=classic;html=1;rounded=0;exitX=0.5;exitY=1;exitDx=0;exitDy=0;entryX=0.5;entryY=0;entryDx=0;entryDy=0;" parent="1" source="Zgi0F4orfHbIRYUvKWjQ-37" target="Zgi0F4orfHbIRYUvKWjQ-49" edge="1">
          <mxGeometry width="50" height="50" relative="1" as="geometry">
            <mxPoint x="490" y="550" as="sourcePoint" />
            <mxPoint x="540" y="500" as="targetPoint" />
            <Array as="points">
              <mxPoint x="390" y="760" />
              <mxPoint x="390" y="780" />
            </Array>
          </mxGeometry>
        </mxCell>
        <mxCell id="Zgi0F4orfHbIRYUvKWjQ-58" value="" style="curved=1;endArrow=classic;html=1;rounded=0;exitX=0.5;exitY=1;exitDx=0;exitDy=0;entryX=0.5;entryY=0;entryDx=0;entryDy=0;" parent="1" source="Zgi0F4orfHbIRYUvKWjQ-37" target="Zgi0F4orfHbIRYUvKWjQ-50" edge="1">
          <mxGeometry width="50" height="50" relative="1" as="geometry">
            <mxPoint x="440" y="540" as="sourcePoint" />
            <mxPoint x="540" y="510" as="targetPoint" />
            <Array as="points">
              <mxPoint x="450" y="700" />
            </Array>
          </mxGeometry>
        </mxCell>
        <mxCell id="Zgi0F4orfHbIRYUvKWjQ-59" value="" style="curved=1;endArrow=classic;html=1;rounded=0;exitX=0.5;exitY=1;exitDx=0;exitDy=0;entryX=0.5;entryY=0;entryDx=0;entryDy=0;" parent="1" source="Zgi0F4orfHbIRYUvKWjQ-37" target="Zgi0F4orfHbIRYUvKWjQ-51" edge="1">
          <mxGeometry width="50" height="50" relative="1" as="geometry">
            <mxPoint x="570" y="530" as="sourcePoint" />
            <mxPoint x="620" y="480" as="targetPoint" />
            <Array as="points">
              <mxPoint x="500" y="700" />
            </Array>
          </mxGeometry>
        </mxCell>
        <mxCell id="Zgi0F4orfHbIRYUvKWjQ-60" value="" style="curved=1;endArrow=classic;html=1;rounded=0;exitX=0.5;exitY=1;exitDx=0;exitDy=0;entryX=0.5;entryY=0;entryDx=0;entryDy=0;" parent="1" source="Zgi0F4orfHbIRYUvKWjQ-37" target="Zgi0F4orfHbIRYUvKWjQ-52" edge="1">
          <mxGeometry width="50" height="50" relative="1" as="geometry">
            <mxPoint x="480" y="530" as="sourcePoint" />
            <mxPoint x="730" y="470" as="targetPoint" />
            <Array as="points">
              <mxPoint x="600" y="700" />
            </Array>
          </mxGeometry>
        </mxCell>
        <mxCell id="Zgi0F4orfHbIRYUvKWjQ-63" style="edgeStyle=orthogonalEdgeStyle;rounded=0;orthogonalLoop=1;jettySize=auto;html=1;" parent="1" source="Zgi0F4orfHbIRYUvKWjQ-61" target="Zgi0F4orfHbIRYUvKWjQ-37" edge="1">
          <mxGeometry relative="1" as="geometry" />
        </mxCell>
        <mxCell id="Zgi0F4orfHbIRYUvKWjQ-91" value="debug=0" style="edgeLabel;html=1;align=center;verticalAlign=middle;resizable=0;points=[];" parent="Zgi0F4orfHbIRYUvKWjQ-63" vertex="1" connectable="0">
          <mxGeometry x="-0.1714" relative="1" as="geometry">
            <mxPoint x="25" as="offset" />
          </mxGeometry>
        </mxCell>
        <mxCell id="Zgi0F4orfHbIRYUvKWjQ-61" value="Next instruction" style="ellipse;whiteSpace=wrap;html=1;aspect=fixed;" parent="1" vertex="1">
          <mxGeometry x="385" y="450" width="80" height="80" as="geometry" />
        </mxCell>
        <mxCell id="Zgi0F4orfHbIRYUvKWjQ-64" value="" style="curved=1;endArrow=classic;html=1;rounded=0;exitX=0.5;exitY=1;exitDx=0;exitDy=0;entryX=0.5;entryY=0;entryDx=0;entryDy=0;" parent="1" source="Zgi0F4orfHbIRYUvKWjQ-47" target="Zgi0F4orfHbIRYUvKWjQ-53" edge="1">
          <mxGeometry width="50" height="50" relative="1" as="geometry">
            <mxPoint x="220" y="1000" as="sourcePoint" />
            <mxPoint x="270" y="950" as="targetPoint" />
            <Array as="points">
              <mxPoint x="210" y="940" />
            </Array>
          </mxGeometry>
        </mxCell>
        <mxCell id="Zgi0F4orfHbIRYUvKWjQ-65" value="" style="curved=1;endArrow=classic;html=1;rounded=0;exitX=0.5;exitY=1;exitDx=0;exitDy=0;entryX=0.5;entryY=0;entryDx=0;entryDy=0;" parent="1" source="Zgi0F4orfHbIRYUvKWjQ-48" target="Zgi0F4orfHbIRYUvKWjQ-53" edge="1">
          <mxGeometry width="50" height="50" relative="1" as="geometry">
            <mxPoint x="280" y="920" as="sourcePoint" />
            <mxPoint x="330" y="870" as="targetPoint" />
            <Array as="points">
              <mxPoint x="310" y="930" />
            </Array>
          </mxGeometry>
        </mxCell>
        <mxCell id="Zgi0F4orfHbIRYUvKWjQ-66" value="" style="curved=1;endArrow=classic;html=1;rounded=0;exitX=0.5;exitY=1;exitDx=0;exitDy=0;entryX=0.5;entryY=0;entryDx=0;entryDy=0;" parent="1" source="Zgi0F4orfHbIRYUvKWjQ-49" target="Zgi0F4orfHbIRYUvKWjQ-53" edge="1">
          <mxGeometry width="50" height="50" relative="1" as="geometry">
            <mxPoint x="480" y="900" as="sourcePoint" />
            <mxPoint x="530" y="850" as="targetPoint" />
            <Array as="points">
              <mxPoint x="420" y="910" />
            </Array>
          </mxGeometry>
        </mxCell>
        <mxCell id="Zgi0F4orfHbIRYUvKWjQ-67" value="" style="curved=1;endArrow=classic;html=1;rounded=0;exitX=0.5;exitY=1;exitDx=0;exitDy=0;entryX=0.5;entryY=0;entryDx=0;entryDy=0;" parent="1" source="Zgi0F4orfHbIRYUvKWjQ-50" target="Zgi0F4orfHbIRYUvKWjQ-53" edge="1">
          <mxGeometry width="50" height="50" relative="1" as="geometry">
            <mxPoint x="530" y="910" as="sourcePoint" />
            <mxPoint x="480" y="960" as="targetPoint" />
            <Array as="points">
              <mxPoint x="480" y="910" />
              <mxPoint x="460" y="920" />
            </Array>
          </mxGeometry>
        </mxCell>
        <mxCell id="Zgi0F4orfHbIRYUvKWjQ-68" value="" style="curved=1;endArrow=classic;html=1;rounded=0;exitX=0.5;exitY=1;exitDx=0;exitDy=0;entryX=0.5;entryY=0;entryDx=0;entryDy=0;" parent="1" source="Zgi0F4orfHbIRYUvKWjQ-51" target="Zgi0F4orfHbIRYUvKWjQ-53" edge="1">
          <mxGeometry width="50" height="50" relative="1" as="geometry">
            <mxPoint x="650" y="910" as="sourcePoint" />
            <mxPoint x="600" y="960" as="targetPoint" />
            <Array as="points">
              <mxPoint x="600" y="910" />
            </Array>
          </mxGeometry>
        </mxCell>
        <mxCell id="Zgi0F4orfHbIRYUvKWjQ-69" value="" style="curved=1;endArrow=classic;html=1;rounded=0;exitX=0.5;exitY=1;exitDx=0;exitDy=0;entryX=0.5;entryY=0;entryDx=0;entryDy=0;" parent="1" source="Zgi0F4orfHbIRYUvKWjQ-52" target="Zgi0F4orfHbIRYUvKWjQ-53" edge="1">
          <mxGeometry width="50" height="50" relative="1" as="geometry">
            <mxPoint x="780" y="930" as="sourcePoint" />
            <mxPoint x="730" y="980" as="targetPoint" />
            <Array as="points">
              <mxPoint x="720" y="920" />
              <mxPoint x="630" y="940" />
            </Array>
          </mxGeometry>
        </mxCell>
        <mxCell id="Zgi0F4orfHbIRYUvKWjQ-74" value="" style="curved=1;endArrow=classic;html=1;rounded=0;exitX=0;exitY=0.5;exitDx=0;exitDy=0;entryX=0;entryY=0.5;entryDx=0;entryDy=0;" parent="1" source="Zgi0F4orfHbIRYUvKWjQ-53" target="Zgi0F4orfHbIRYUvKWjQ-1" edge="1">
          <mxGeometry width="50" height="50" relative="1" as="geometry">
            <mxPoint x="220" y="1015" as="sourcePoint" />
            <mxPoint x="80" y="320" as="targetPoint" />
            <Array as="points">
              <mxPoint x="270" y="1015" />
              <mxPoint x="100" y="940" />
              <mxPoint x="50" y="440" />
              <mxPoint x="80" y="340" />
              <mxPoint x="140" y="300" />
            </Array>
          </mxGeometry>
        </mxCell>
        <mxCell id="Zgi0F4orfHbIRYUvKWjQ-75" value="halt=1" style="edgeLabel;html=1;align=center;verticalAlign=middle;resizable=0;points=[];" parent="Zgi0F4orfHbIRYUvKWjQ-74" vertex="1" connectable="0">
          <mxGeometry x="0.2576" y="-8" relative="1" as="geometry">
            <mxPoint y="140" as="offset" />
          </mxGeometry>
        </mxCell>
        <mxCell id="Zgi0F4orfHbIRYUvKWjQ-76" value="" style="curved=1;endArrow=classic;html=1;rounded=0;exitX=1;exitY=0.5;exitDx=0;exitDy=0;entryX=1;entryY=0.5;entryDx=0;entryDy=0;" parent="1" source="Zgi0F4orfHbIRYUvKWjQ-53" target="Zgi0F4orfHbIRYUvKWjQ-13" edge="1">
          <mxGeometry width="50" height="50" relative="1" as="geometry">
            <mxPoint x="590" y="1040" as="sourcePoint" />
            <mxPoint x="830" y="460" as="targetPoint" />
            <Array as="points">
              <mxPoint x="650" y="990" />
              <mxPoint x="780" y="940" />
              <mxPoint x="800" y="800" />
              <mxPoint x="690" y="580" />
            </Array>
          </mxGeometry>
        </mxCell>
        <mxCell id="Zgi0F4orfHbIRYUvKWjQ-77" value="halt=0" style="edgeLabel;html=1;align=center;verticalAlign=middle;resizable=0;points=[];" parent="Zgi0F4orfHbIRYUvKWjQ-76" vertex="1" connectable="0">
          <mxGeometry x="0.2641" y="8" relative="1" as="geometry">
            <mxPoint x="-2" y="-42" as="offset" />
          </mxGeometry>
        </mxCell>
        <mxCell id="Zgi0F4orfHbIRYUvKWjQ-79" value="" style="curved=1;endArrow=classic;html=1;rounded=0;exitX=0.5;exitY=0;exitDx=0;exitDy=0;entryX=0;entryY=0.5;entryDx=0;entryDy=0;" parent="1" source="Zgi0F4orfHbIRYUvKWjQ-11" target="Zgi0F4orfHbIRYUvKWjQ-1" edge="1">
          <mxGeometry width="50" height="50" relative="1" as="geometry">
            <mxPoint x="90" y="200" as="sourcePoint" />
            <mxPoint x="140" y="150" as="targetPoint" />
            <Array as="points">
              <mxPoint x="120" y="160" />
            </Array>
          </mxGeometry>
        </mxCell>
        <mxCell id="Zgi0F4orfHbIRYUvKWjQ-80" value="" style="curved=1;endArrow=classic;html=1;rounded=0;exitX=1;exitY=0.5;exitDx=0;exitDy=0;entryX=0;entryY=0;entryDx=0;entryDy=0;" parent="1" source="Zgi0F4orfHbIRYUvKWjQ-21" target="Zgi0F4orfHbIRYUvKWjQ-1" edge="1">
          <mxGeometry width="50" height="50" relative="1" as="geometry">
            <mxPoint x="190" y="80" as="sourcePoint" />
            <mxPoint x="240" y="30" as="targetPoint" />
            <Array as="points">
              <mxPoint x="290" y="100" />
            </Array>
          </mxGeometry>
        </mxCell>
        <mxCell id="Zgi0F4orfHbIRYUvKWjQ-84" style="edgeStyle=orthogonalEdgeStyle;rounded=0;orthogonalLoop=1;jettySize=auto;html=1;" parent="1" source="Zgi0F4orfHbIRYUvKWjQ-82" target="Zgi0F4orfHbIRYUvKWjQ-61" edge="1">
          <mxGeometry relative="1" as="geometry" />
        </mxCell>
        <mxCell id="Zgi0F4orfHbIRYUvKWjQ-85" value="next=1" style="edgeLabel;html=1;align=center;verticalAlign=middle;resizable=0;points=[];" parent="Zgi0F4orfHbIRYUvKWjQ-84" vertex="1" connectable="0">
          <mxGeometry x="-0.2271" relative="1" as="geometry">
            <mxPoint as="offset" />
          </mxGeometry>
        </mxCell>
        <mxCell id="Zgi0F4orfHbIRYUvKWjQ-87" style="edgeStyle=orthogonalEdgeStyle;rounded=0;orthogonalLoop=1;jettySize=auto;html=1;entryX=1;entryY=0.5;entryDx=0;entryDy=0;" parent="1" source="Zgi0F4orfHbIRYUvKWjQ-82" target="Zgi0F4orfHbIRYUvKWjQ-22" edge="1">
          <mxGeometry relative="1" as="geometry" />
        </mxCell>
        <mxCell id="Zgi0F4orfHbIRYUvKWjQ-88" value="previous=1" style="edgeLabel;html=1;align=center;verticalAlign=middle;resizable=0;points=[];" parent="Zgi0F4orfHbIRYUvKWjQ-87" vertex="1" connectable="0">
          <mxGeometry x="-0.092" y="1" relative="1" as="geometry">
            <mxPoint as="offset" />
          </mxGeometry>
        </mxCell>
        <mxCell id="Zgi0F4orfHbIRYUvKWjQ-100" style="edgeStyle=orthogonalEdgeStyle;rounded=0;orthogonalLoop=1;jettySize=auto;html=1;entryX=0.5;entryY=0;entryDx=0;entryDy=0;" parent="1" source="Zgi0F4orfHbIRYUvKWjQ-82" target="Zgi0F4orfHbIRYUvKWjQ-99" edge="1">
          <mxGeometry relative="1" as="geometry" />
        </mxCell>
        <mxCell id="Zgi0F4orfHbIRYUvKWjQ-101" value="read=1" style="edgeLabel;html=1;align=center;verticalAlign=middle;resizable=0;points=[];" parent="Zgi0F4orfHbIRYUvKWjQ-100" vertex="1" connectable="0">
          <mxGeometry x="-0.6457" y="1" relative="1" as="geometry">
            <mxPoint x="19" as="offset" />
          </mxGeometry>
        </mxCell>
        <mxCell id="Zgi0F4orfHbIRYUvKWjQ-82" value="Debug mode" style="ellipse;whiteSpace=wrap;html=1;aspect=fixed;" parent="1" vertex="1">
          <mxGeometry x="240" y="450" width="80" height="80" as="geometry" />
        </mxCell>
        <mxCell id="Zgi0F4orfHbIRYUvKWjQ-92" value="" style="curved=1;endArrow=classic;html=1;rounded=0;exitX=0.5;exitY=0;exitDx=0;exitDy=0;entryX=0.5;entryY=0;entryDx=0;entryDy=0;" parent="1" source="Zgi0F4orfHbIRYUvKWjQ-22" target="Zgi0F4orfHbIRYUvKWjQ-82" edge="1">
          <mxGeometry width="50" height="50" relative="1" as="geometry">
            <mxPoint x="180" y="440" as="sourcePoint" />
            <mxPoint x="240" y="400" as="targetPoint" />
            <Array as="points">
              <mxPoint x="240" y="430" />
            </Array>
          </mxGeometry>
        </mxCell>
        <mxCell id="Zgi0F4orfHbIRYUvKWjQ-93" value="debug=1" style="edgeLabel;html=1;align=center;verticalAlign=middle;resizable=0;points=[];" parent="Zgi0F4orfHbIRYUvKWjQ-92" vertex="1" connectable="0">
          <mxGeometry x="-0.2019" y="-1" relative="1" as="geometry">
            <mxPoint x="8" y="-10" as="offset" />
          </mxGeometry>
        </mxCell>
        <mxCell id="Zgi0F4orfHbIRYUvKWjQ-94" value="" style="curved=1;endArrow=classic;html=1;rounded=0;exitX=0.5;exitY=1;exitDx=0;exitDy=0;entryX=0.5;entryY=1;entryDx=0;entryDy=0;" parent="1" source="Zgi0F4orfHbIRYUvKWjQ-22" target="Zgi0F4orfHbIRYUvKWjQ-61" edge="1">
          <mxGeometry width="50" height="50" relative="1" as="geometry">
            <mxPoint x="230" y="660" as="sourcePoint" />
            <mxPoint x="280" y="610" as="targetPoint" />
            <Array as="points">
              <mxPoint x="130" y="610" />
              <mxPoint x="210" y="680" />
              <mxPoint x="360" y="640" />
            </Array>
          </mxGeometry>
        </mxCell>
        <mxCell id="Zgi0F4orfHbIRYUvKWjQ-95" value="debug=0" style="edgeLabel;html=1;align=center;verticalAlign=middle;resizable=0;points=[];" parent="Zgi0F4orfHbIRYUvKWjQ-94" vertex="1" connectable="0">
          <mxGeometry x="-0.3755" y="2" relative="1" as="geometry">
            <mxPoint x="-26" y="12" as="offset" />
          </mxGeometry>
        </mxCell>
        <mxCell id="Zgi0F4orfHbIRYUvKWjQ-96" value="" style="curved=1;endArrow=classic;html=1;rounded=0;exitX=0.5;exitY=0;exitDx=0;exitDy=0;entryX=0.5;entryY=0;entryDx=0;entryDy=0;" parent="1" source="Zgi0F4orfHbIRYUvKWjQ-61" target="Zgi0F4orfHbIRYUvKWjQ-82" edge="1">
          <mxGeometry width="50" height="50" relative="1" as="geometry">
            <mxPoint x="370" y="390" as="sourcePoint" />
            <mxPoint x="320" y="440" as="targetPoint" />
            <Array as="points">
              <mxPoint x="320" y="430" />
            </Array>
          </mxGeometry>
        </mxCell>
        <mxCell id="Zgi0F4orfHbIRYUvKWjQ-97" value="debug=1" style="edgeLabel;html=1;align=center;verticalAlign=middle;resizable=0;points=[];" parent="Zgi0F4orfHbIRYUvKWjQ-96" vertex="1" connectable="0">
          <mxGeometry x="0.4532" y="19" relative="1" as="geometry">
            <mxPoint x="5" y="-7" as="offset" />
          </mxGeometry>
        </mxCell>
        <mxCell id="Zgi0F4orfHbIRYUvKWjQ-99" value="Read instruction/Q" style="ellipse;whiteSpace=wrap;html=1;aspect=fixed;" parent="1" vertex="1">
          <mxGeometry x="240" y="560" width="80" height="80" as="geometry" />
        </mxCell>
        <mxCell id="Zgi0F4orfHbIRYUvKWjQ-102" value="" style="curved=1;endArrow=classic;html=1;rounded=0;exitX=0.5;exitY=1;exitDx=0;exitDy=0;entryX=0.5;entryY=1;entryDx=0;entryDy=0;" parent="1" source="Zgi0F4orfHbIRYUvKWjQ-99" target="Zgi0F4orfHbIRYUvKWjQ-82" edge="1">
          <mxGeometry width="50" height="50" relative="1" as="geometry">
            <mxPoint x="160" y="640" as="sourcePoint" />
            <mxPoint x="210" y="590" as="targetPoint" />
            <Array as="points">
              <mxPoint x="240" y="650" />
              <mxPoint x="210" y="640" />
              <mxPoint x="200" y="610" />
              <mxPoint x="220" y="570" />
            </Array>
          </mxGeometry>
        </mxCell>
        <mxCell id="Zgi0F4orfHbIRYUvKWjQ-103" value="" style="curved=1;endArrow=classic;html=1;rounded=0;exitX=0.5;exitY=1;exitDx=0;exitDy=0;entryX=0.5;entryY=0;entryDx=0;entryDy=0;" parent="1" source="Zgi0F4orfHbIRYUvKWjQ-1" target="Zgi0F4orfHbIRYUvKWjQ-82" edge="1">
          <mxGeometry width="50" height="50" relative="1" as="geometry">
            <mxPoint x="320" y="320" as="sourcePoint" />
            <mxPoint x="270" y="370" as="targetPoint" />
            <Array as="points">
              <mxPoint x="250" y="320" />
            </Array>
          </mxGeometry>
        </mxCell>
        <mxCell id="Zgi0F4orfHbIRYUvKWjQ-104" value="debug=1" style="edgeLabel;html=1;align=center;verticalAlign=middle;resizable=0;points=[];" parent="Zgi0F4orfHbIRYUvKWjQ-103" vertex="1" connectable="0">
          <mxGeometry x="0.2242" y="1" relative="1" as="geometry">
            <mxPoint x="-3" y="10" as="offset" />
          </mxGeometry>
        </mxCell>
        <mxCell id="Zgi0F4orfHbIRYUvKWjQ-105" value="" style="curved=1;endArrow=classic;html=1;rounded=0;exitX=0.5;exitY=1;exitDx=0;exitDy=0;entryX=0.5;entryY=0;entryDx=0;entryDy=0;" parent="1" source="Zgi0F4orfHbIRYUvKWjQ-13" target="Zgi0F4orfHbIRYUvKWjQ-82" edge="1">
          <mxGeometry width="50" height="50" relative="1" as="geometry">
            <mxPoint x="340" y="360" as="sourcePoint" />
            <mxPoint x="290" y="410" as="targetPoint" />
            <Array as="points">
              <mxPoint x="340" y="400" />
              <mxPoint x="300" y="420" />
            </Array>
          </mxGeometry>
        </mxCell>
        <mxCell id="Zgi0F4orfHbIRYUvKWjQ-106" value="debug=1" style="edgeLabel;html=1;align=center;verticalAlign=middle;resizable=0;points=[];" parent="Zgi0F4orfHbIRYUvKWjQ-105" vertex="1" connectable="0">
          <mxGeometry x="0.141" y="-2" relative="1" as="geometry">
            <mxPoint x="1" y="-8" as="offset" />
          </mxGeometry>
        </mxCell>
      </root>
    </mxGraphModel>
  </diagram>
</mxfile>
